<?xml version="1.0" encoding="UTF-8"?>
<svg version="1.1" xmlns="http://www.w3.org/2000/svg" width="286" height="297">
<path d="M0 0 C1.02222656 0.35707031 2.04445312 0.71414062 3.09765625 1.08203125 C17.46142585 6.5530229 29.72005352 15.74404866 41 26 C41.97646484 26.85271484 41.97646484 26.85271484 42.97265625 27.72265625 C64.14052533 47.28917353 76.56116688 77.87601249 78.12646484 106.29614258 C79.26218025 142.01330705 68.24146984 174.06174151 43.73876953 200.30615234 C20.57105848 224.20678687 -11.49994598 236.54367334 -44.5 237.375 C-74.10802576 236.56868122 -101.28954625 227.04947896 -124 208 C-124.81984375 207.33226562 -125.6396875 206.66453125 -126.484375 205.9765625 C-132.44445047 200.94132633 -137.26919989 195.18576074 -142 189 C-142.60714844 188.20851562 -143.21429688 187.41703125 -143.83984375 186.6015625 C-155.37298818 170.85790503 -163.83312506 151.50187443 -166 132 C-166.16242188 130.69289062 -166.16242188 130.69289062 -166.328125 129.359375 C-169.66530782 98.62216485 -162.0469819 67.00570575 -143.73828125 41.8984375 C-141.5591189 39.19825379 -139.30575204 36.59245676 -137 34 C-136.31550781 33.17242187 -135.63101563 32.34484375 -134.92578125 31.4921875 C-125.29509085 20.13473745 -113.22472294 11.68889755 -100 5 C-99.39494629 4.69078613 -98.78989258 4.38157227 -98.16650391 4.06298828 C-67.34947621 -11.3656885 -32.04244792 -11.48561373 0 0 Z " fill="#000000" transform="translate(187,34)"/>
<path d="M0 0 C3.65589334 1.49004116 5.46392764 3.52869436 7.9375 6.5625 C22.09396419 22.64833451 43.94468797 30.89316559 64.97265625 32.2578125 C86.18878052 33.0444117 106.35576254 25.52475579 122.3125 11.5 C126.19461394 7.89031511 129.66881735 4.12014696 133 0 C136.21524305 1.40844718 138.32183868 3.10344786 140.75 5.625 C141.36359375 6.25664063 141.9771875 6.88828125 142.609375 7.5390625 C143.06828125 8.02117187 143.5271875 8.50328125 144 9 C142.46238272 12.57155935 140.32872973 15.02814044 137.68408203 17.86035156 C136.78779083 18.82104553 135.89149963 19.7817395 134.9680481 20.77154541 C131.37062056 24.57424407 127.74429449 28.34919427 124.09671211 32.1037941 C121.33610441 34.94605763 118.5981954 37.8039501 115.90673828 40.71191406 C96.07657451 62.0988592 96.07657451 62.0988592 85.13034058 62.61663818 C81.2805067 62.42809442 77.75092545 61.89694903 74 61 C74.95042087 59.88325489 75.90197608 58.76747511 76.85400391 57.65209961 C77.64866562 56.71991859 77.64866562 56.71991859 78.4593811 55.76890564 C80.34353861 53.60555632 82.32921803 51.57300987 84.375 49.5625 C85.06335938 48.88316406 85.75171875 48.20382813 86.4609375 47.50390625 C86.96882813 47.00761719 87.47671875 46.51132813 88 46 C87.12214844 46.10828125 87.12214844 46.10828125 86.2265625 46.21875 C80.1223275 46.8786673 74.07151318 47.10963616 67.9375 47.125 C67.2067627 47.12951172 66.47602539 47.13402344 65.72314453 47.13867188 C61.68851678 47.12790569 57.73105675 46.91011585 53.71704102 46.49169922 C52.82976822 46.40008514 51.94249542 46.30847107 51.02833557 46.21408081 C50.02430946 46.10811081 50.02430946 46.10811081 49 46 C49.52316299 46.52094238 50.04632599 47.04188477 50.58534241 47.57861328 C55.54505857 52.51818945 60.5022883 57.46024481 65.45682621 62.40501404 C68.00332694 64.94632359 70.55073765 67.48670605 73.1003418 70.02490234 C75.56648205 72.48007864 78.03008301 74.93777792 80.492033 77.39715576 C81.87660956 78.77901905 83.26372123 80.15834075 84.65089417 81.53759766 C89.09545135 85.98176465 93.4093468 90.47094767 97.48167419 95.26025391 C100.16125295 98.33060064 103.08952846 101.15076762 106 104 C110.19070606 108.14263748 114.22690628 112.30939927 118.03125 116.8125 C121.48075929 120.6452881 125.1981677 124.21706226 128.86254883 127.84301758 C132.62721695 131.583355 136.2514502 135.38365182 139.66796875 139.44921875 C141.04119534 141.04796055 142.49255458 142.52812851 144 144 C142.59155282 147.21524305 140.89655214 149.32183868 138.375 151.75 C137.74335938 152.36359375 137.11171875 152.9771875 136.4609375 153.609375 C135.97882813 154.06828125 135.49671875 154.5271875 135 155 C131.65678045 153.88559348 130.93980381 153.02527657 128.75 150.375 C128.12609375 149.64796875 127.5021875 148.9209375 126.859375 148.171875 C125.74470517 146.86986571 124.6301 145.56780106 123.515625 144.265625 C111.11021109 130.83708417 91.12228706 120.57021499 72.8203125 119.76171875 C51.14663364 119.24408317 31.59219084 125.60961648 15 140 C10.33553922 144.63606223 6.2569377 149.26982524 3 155 C-0.45201639 153.52278578 -2.64961936 151.56205999 -5.25 148.875 C-5.95640625 148.15054688 -6.6628125 147.42609375 -7.390625 146.6796875 C-8.18726562 145.84824219 -8.18726562 145.84824219 -9 145 C-7.43987352 141.34321137 -5.20699472 138.8462298 -2.50048828 135.95605469 C-2.04464355 135.46779205 -1.58879883 134.97952942 -1.11914062 134.47647095 C3.1003936 129.97605306 7.38431219 125.53612035 11.68559074 121.11390305 C14.56718286 118.1506353 17.42620667 115.17157088 20.23876953 112.14257812 C40.96963244 89.85470008 40.96963244 89.85470008 51.93777466 89.31524658 C55.77810168 89.51171811 59.26867804 90.06071257 63 91 C62.04957913 92.11674511 61.09802392 93.23252489 60.14599609 94.34790039 C59.61622162 94.9693544 59.08644714 95.59080841 58.5406189 96.23109436 C56.65646139 98.39444368 54.67078197 100.42699013 52.625 102.4375 C51.93664062 103.11683594 51.24828125 103.79617187 50.5390625 104.49609375 C49.77722656 105.24052734 49.77722656 105.24052734 49 106 C49.94359375 105.83757812 50.8871875 105.67515625 51.859375 105.5078125 C56.65350679 104.82603396 61.41588972 104.85407312 66.25 104.875 C67.12785156 104.87113281 68.00570312 104.86726563 68.91015625 104.86328125 C73.5838187 104.87012409 78.18507608 105.06493582 82.83886719 105.50830078 C83.81088074 105.59991486 84.78289429 105.69152893 85.78436279 105.78591919 C86.51552307 105.85656586 87.24668335 105.92721252 88 106 C82.27390451 100.25061611 76.5450249 94.5040264 70.81268311 88.76087093 C68.15030636 86.09330118 65.48885711 83.42482024 62.82958984 80.75415039 C60.25770087 78.17130411 57.68329451 75.59099077 55.10720825 73.01233101 C54.13046344 72.03375488 53.15459106 71.05430706 52.17965698 70.07392693 C47.1597975 65.02717379 42.10134652 60.10968719 36.69799805 55.47438049 C34.47862351 53.54728609 32.40456064 51.50106118 30.34375 49.40625 C29.54839844 48.60316406 28.75304687 47.80007812 27.93359375 46.97265625 C26.31119792 45.32421875 24.68880208 43.67578125 23.06640625 42.02734375 C18.84633546 37.766235 14.56336678 33.69204102 10.01367188 29.78662109 C6.17720422 26.38273284 2.60491985 22.70802987 -1 19.0625 C-1.77472656 18.28326172 -2.54945312 17.50402344 -3.34765625 16.70117188 C-5.23410757 14.8030758 -7.11816245 12.90266851 -9 11 C-7.49053489 7.81913482 -5.92058175 5.70130094 -3.375 3.25 C-2.74335937 2.63640625 -2.11171875 2.0228125 -1.4609375 1.390625 C-0.73777344 0.70226562 -0.73777344 0.70226562 0 0 Z " fill="#03D8FA" transform="translate(75,71)"/>
</svg>
